P1
# To jest bitmapa 25x25 z literką a
25 25
1010101100001110010101011
1010111110010110110001101
0101010000011000100110010
0000011100110001101000010
1110100011000100010010111
0111100111000101101101001
0010011110001010010100111
1001111101000110000011100
1101110101110101011000110
1101101001001101111000011
1000000001110100110100001
0011000010010010011100101
0011101110010101001111001
1000101110101100001001111
0100000001110110100101011
0101100011011110010010110
0010101010110100000010010
0000111010000110110100011
0011000110101110011101000
1110010011001100011011111
0001011011000010010100010
0110101001010101000110001
0110101111100000101111100
0011001101100001101101110
1010010000111001010010000
