P1
# To jest bitmapa 25x25 z literką b
25 25
0111001101001111000101101
0101110100011000011010001
0001001011000000110111101
0010010111110010011101101
0010101101110000110100011
0100011100010011011001011
0011000101110010100000000
0001011001100001010100110
0111110011101010100000111
0110001001111001100001101
0100011000001110000011100
1101001001100100011000100
0101100110111001101000010
1000000100010100010101011
0000111011110001100111100
1011111011010110000011111
0001010000010101000100100
1001000110111111000000001
0111100010111000011101110
0100101010001111110001100
0001111001110100001011101
1101000010001011001010110
0011111010101101010000010
0000110011010110010001110
1010111010000111101001010
