P1
# To jest bitmapa 25x25 z literką c
25 25
0110101100001111001101111
1011100100010000110011000
1001010001110010101101010
1001010011110011011010001
1010110110101100110010001
1110100110110101101001011
1110000000001000101011111
0011010000101010000110010
0000010010100111100100001
1110111010101010000101101
0110100010110000101000101
0110100111101010100000101
1000110110011000110000101
1110010010100010001100110
0000010111100111111101111
1111001001001001011000110
1011001000110001000100000
1001010111110111110011001
1011100000000101111011100
0101100110111100011111001
0000010110001100110111101
0000000010101001100111101
0010100001101111111100000
1100001011001110000101100
0001111000111110011011011
