<svg xmlns="http://www.w3.org/2000/svg" viewBox="0 0 1400 1800">
  <!-- Tytuł -->
  <text x="700" y="60" font-family="Arial" font-size="36" font-weight="bold" text-anchor="middle">Wizualizacja bloków czasowych</text>
  
  <!-- Blok Osobisty -->
  <rect x="100" y="100" width="1200" height="340" rx="10" fill="#f0f8ff" stroke="#4287f5" stroke-width="3"/>
  <text x="130" y="140" font-family="Arial" font-size="28" font-weight="bold">Blok Osobisty</text>
  <text x="130" y="180" font-family="Arial" font-size="20">Kolor podstawowy: Niebieski (#4287f5)</text>
  <rect x="1150" y="125" width="80" height="80" rx="5" fill="#4287f5"/>
  
  <!-- Podkategorie Bloku Osobistego -->
  <rect x="150" y="210" width="1100" height="40" rx="5" fill="#4287f5"/>
  <text x="180" y="237" font-family="Arial" font-size="20" fill="white">Higiena/rutyny osobiste (#4287f5)</text>
  
  <rect x="150" y="260" width="1100" height="40" rx="5" fill="#75a5f9"/>
  <text x="180" y="287" font-family="Arial" font-size="20" fill="white">Posiłki (#75a5f9)</text>
  
  <rect x="150" y="310" width="1100" height="40" rx="5" fill="#a8c4fa"/>
  <text x="180" y="337" font-family="Arial" font-size="20" fill="white">Aktywność fizyczna (#a8c4fa)</text>
  
  <rect x="150" y="360" width="1100" height="40" rx="5" fill="#d6e4fd"/>
  <text x="180" y="387" font-family="Arial" font-size="20">Obowiązki domowe (#d6e4fd)</text>
  
  <!-- Blok Produktywności -->
  <rect x="100" y="470" width="1200" height="230" rx="10" fill="#f0fff5" stroke="#42b883" stroke-width="3"/>
  <text x="130" y="510" font-family="Arial" font-size="28" font-weight="bold">Blok Produktywności</text>
  <text x="130" y="550" font-family="Arial" font-size="20">Kolor podstawowy: Zielony (#42b883)</text>
  <rect x="1150" y="495" width="80" height="80" rx="5" fill="#42b883"/>
  
  <!-- Podkategorie Bloku Produktywności -->
  <rect x="150" y="580" width="1100" height="40" rx="5" fill="#42b883"/>
  <text x="180" y="607" font-family="Arial" font-size="20" fill="white">Praca/nauka (#42b883)</text>
  
  <rect x="150" y="630" width="1100" height="40" rx="5" fill="#6fcc9c"/>
  <text x="180" y="657" font-family="Arial" font-size="20" fill="white">Moja marka (#6fcc9c)</text>
  
  <!-- Blok Rozwojowy -->
  <rect x="100" y="730" width="1200" height="280" rx="10" fill="#f8f0ff" stroke="#9966cc" stroke-width="3"/>
  <text x="130" y="770" font-family="Arial" font-size="28" font-weight="bold">Blok Rozwojowy</text>
  <text x="130" y="810" font-family="Arial" font-size="20">Kolor podstawowy: Fioletowy (#9966cc)</text>
  <rect x="1150" y="755" width="80" height="80" rx="5" fill="#9966cc"/>
  
  <!-- Podkategorie Bloku Rozwojowego -->
  <rect x="150" y="840" width="1100" height="40" rx="5" fill="#9966cc"/>
  <text x="180" y="867" font-family="Arial" font-size="20" fill="white">Rozwój osobisty (#9966cc)</text>
  
  <rect x="150" y="890" width="1100" height="40" rx="5" fill="#b191d9"/>
  <text x="180" y="917" font-family="Arial" font-size="20" fill="white">Newslettery (#b191d9)</text>
  
  <rect x="150" y="940" width="1100" height="40" rx="5" fill="#c8b5e4"/>
  <text x="180" y="967" font-family="Arial" font-size="20">Spotkania rozwojowe (#c8b5e4)</text>
  
  <!-- Blok Czasu Wolnego -->
  <rect x="100" y="1040" width="1200" height="230" rx="10" fill="#fff8f0" stroke="#ff9933" stroke-width="3"/>
  <text x="130" y="1080" font-family="Arial" font-size="28" font-weight="bold">Blok Czasu Wolnego</text>
  <text x="130" y="1120" font-family="Arial" font-size="20">Kolor podstawowy: Pomarańczowy (#ff9933)</text>
  <rect x="1150" y="1065" width="80" height="80" rx="5" fill="#ff9933"/>
  
  <!-- Podkategorie Bloku Czasu Wolnego -->
  <rect x="150" y="1150" width="1100" height="40" rx="5" fill="#ff9933"/>
  <text x="180" y="1177" font-family="Arial" font-size="20" fill="white">Czas wolny/rozrywka (#ff9933)</text>
  
  <rect x="150" y="1200" width="1100" height="40" rx="5" fill="#ffb366"/>
  <text x="180" y="1227" font-family="Arial" font-size="20">Spotkania towarzyskie (#ffb366)</text>
  
  <!-- Blok Nieproduktywny -->
  <rect x="100" y="1300" width="1200" height="380" rx="10" fill="#fff0f0" stroke="#ff6666" stroke-width="3"/>
  <text x="130" y="1340" font-family="Arial" font-size="28" font-weight="bold">Blok Nieproduktywny</text>
  <text x="130" y="1380" font-family="Arial" font-size="20">Kolor podstawowy: Czerwony (#ff6666)</text>
  <rect x="1150" y="1325" width="80" height="80" rx="5" fill="#ff6666"/>
  
  <!-- Podkategorie Bloku Nieproduktywnego -->
  <rect x="150" y="1410" width="1100" height="40" rx="5" fill="#ff6666"/>
  <text x="180" y="1437" font-family="Arial" font-size="20" fill="white">Rozpraszacze/marnotrawstwo czasu (#ff6666)</text>
  
  <rect x="150" y="1460" width="1100" height="40" rx="5" fill="#ff8080"/>
  <text x="180" y="1487" font-family="Arial" font-size="20" fill="white">Przerwy (#ff8080)</text>
  
  <rect x="150" y="1510" width="1100" height="40" rx="5" fill="#ff9999"/>
  <text x="180" y="1537" font-family="Arial" font-size="20" fill="white">E-maile/komunikacja (#ff9999)</text>
  
  <rect x="150" y="1560" width="1100" height="40" rx="5" fill="#ffb3b3"/>
  <text x="180" y="1587" font-family="Arial" font-size="20">Organizacja dnia (#ffb3b3)</text>
  
  <rect x="150" y="1610" width="1100" height="40" rx="5" fill="#ffcccc"/>
  <text x="180" y="1637" font-family="Arial" font-size="20">Finanse (#ffcccc)</text>
  
  <!-- Legenda -->
  <text x="700" y="1730" font-family="Arial" font-size="20" font-style="italic" text-anchor="middle">Wszystkie kolory do zastosowania w kalendarzu</text>
</svg>
