<svg xmlns="http://www.w3.org/2000/svg" viewBox="0 0 800 750">
  <!-- Tło -->
  <rect width="800" height="750" fill="#f8f8f8"/>
  
  <!-- Tytuł -->
  <text x="400" y="40" font-family="Arial" font-size="24" font-weight="bold" text-anchor="middle" fill="#333">Rozpoznane kolory bloków</text>
  
  <!-- Tabela z kolorami -->
  <!-- Wiersz 1 -->
  <rect x="50" y="80" width="160" height="100" fill="#7ac052"/>
  <rect x="220" y="80" width="160" height="100" fill="#9c8cb6"/>
  <rect x="390" y="80" width="160" height="100" fill="#b83d97"/>
  <rect x="560" y="80" width="160" height="100" fill="#1a8572"/>
  
  <!-- Wiersz 2 -->
  <rect x="50" y="190" width="160" height="60" fill="#ffffff"/>
  <rect x="220" y="190" width="160" height="60" fill="#ffffff"/>
  <rect x="390" y="190" width="160" height="60" fill="#ffffff"/>
  <rect x="560" y="190" width="160" height="60" fill="#ffffff"/>
  
  <!-- Wiersz 3 -->
  <rect x="50" y="260" width="160" height="100" fill="#5a82b4"/>
  <rect x="220" y="260" width="160" height="100" fill="#c25d20"/>
  <rect x="390" y="260" width="160" height="100" fill="#8e8e8e"/>
  <rect x="560" y="260" width="160" height="100" fill="#ffc900"/>
  
  <!-- Wiersz 4 -->
  <rect x="50" y="370" width="160" height="60" fill="#ffffff"/>
  <rect x="220" y="370" width="160" height="60" fill="#ffffff"/>
  <rect x="390" y="370" width="160" height="60" fill="#ffffff"/>
  <rect x="560" y="370" width="160" height="60" fill="#ffffff"/>
  
  <!-- Wiersz 5 -->
  <rect x="50" y="440" width="160" height="100" fill="#0095b6"/>
  <rect x="220" y="440" width="160" height="100" fill="#f4a4b4"/>
  <rect x="390" y="440" width="160" height="100" fill="#cc3333"/>
  <rect x="560" y="440" width="160" height="100" fill="#ffffff"/>
  
  <!-- Wiersz 6 -->
  <rect x="50" y="550" width="160" height="60" fill="#ffffff"/>
  <rect x="220" y="550" width="160" height="60" fill="#ffffff"/>
  <rect x="390" y="550" width="160" height="60" fill="#ffffff"/>
  <rect x="560" y="550" width="160" height="60" fill="#ffffff"/>
  
  <!-- Etykiety bloków -->
  <text x="130" y="120" font-family="Arial" font-size="14" text-anchor="middle" fill="#000">Blok 1</text>
  <text x="300" y="120" font-family="Arial" font-size="14" text-anchor="middle" fill="#000">Blok 2</text>
  <text x="470" y="120" font-family="Arial" font-size="14" text-anchor="middle" fill="#000">Blok 3</text>
  <text x="640" y="120" font-family="Arial" font-size="14" text-anchor="middle" fill="#000">Blok 4</text>
  
  <text x="130" y="300" font-family="Arial" font-size="14" text-anchor="middle" fill="#000">Blok 5</text>
  <text x="300" y="300" font-family="Arial" font-size="14" text-anchor="middle" fill="#000">Blok 6</text>
  <text x="470" y="300" font-family="Arial" font-size="14" text-anchor="middle" fill="#000">Blok 7</text>
  <text x="640" y="300" font-family="Arial" font-size="14" text-anchor="middle" fill="#000">Blok 8</text>
  
  <text x="130" y="480" font-family="Arial" font-size="14" text-anchor="middle" fill="#000">Blok 9</text>
  <text x="300" y="480" font-family="Arial" font-size="14" text-anchor="middle" fill="#000">Blok 10</text>
  <text x="470" y="480" font-family="Arial" font-size="14" text-anchor="middle" fill="#000">Blok 11</text>
  <text x="640" y="480" font-family="Arial" font-size="14" text-anchor="middle" fill="#fff">Blok 12</text>
  
  <!-- Etykiety kategorii -->
  <text x="130" y="220" font-family="Arial" font-size="12" text-anchor="middle" fill="#000">ROZWÓJ OSOBISTY</text>
  <text x="300" y="220" font-family="Arial" font-size="12" text-anchor="middle" fill="#000">ROZWÓJ W PRACY</text>
  <text x="470" y="220" font-family="Arial" font-size="12" text-anchor="middle" fill="#000">SZUKANIE PRACY</text>
  <text x="640" y="220" font-family="Arial" font-size="12" text-anchor="middle" fill="#000">ZDROWIE, OSTRZENIE PIŁY</text>
  
  <text x="130" y="400" font-family="Arial" font-size="12" text-anchor="middle" fill="#000">ZŁOTA GODZINA</text>
  <text x="300" y="400" font-family="Arial" font-size="11" text-anchor="middle" fill="#000">PORZĄDKI, WYRZUCANIE, PRACE DOMOWE</text>
  <text x="470" y="400" font-family="Arial" font-size="12" text-anchor="middle" fill="#000">DOKUMENTY BIEŻĄCE, OPŁATY</text>
  <text x="640" y="400" font-family="Arial" font-size="12" text-anchor="middle" fill="#000">SPRAWY RÓŻNE</text>
  
  <text x="130" y="580" font-family="Arial" font-size="12" text-anchor="middle" fill="#000">NORWESKI</text>
  <text x="300" y="580" font-family="Arial" font-size="12" text-anchor="middle" fill="#000">ŻYCIE TOWARZYSKIE</text>
  <text x="470" y="580" font-family="Arial" font-size="12" text-anchor="middle" fill="#000">POSIŁKI, ROZRYWKA</text>
  
  <!-- Wartości kolorów -->
  <text x="130" y="150" font-family="Arial" font-size="12" text-anchor="middle" fill="#000">#7ac052</text>
  <text x="300" y="150" font-family="Arial" font-size="12" text-anchor="middle" fill="#000">#9c8cb6</text>
  <text x="470" y="150" font-family="Arial" font-size="12" text-anchor="middle" fill="#fff">#b83d97</text>
  <text x="640" y="150" font-family="Arial" font-size="12" text-anchor="middle" fill="#fff">#1a8572</text>
  
  <text x="130" y="330" font-family="Arial" font-size="12" text-anchor="middle" fill="#fff">#5a82b4</text>
  <text x="300" y="330" font-family="Arial" font-size="12" text-anchor="middle" fill="#fff">#c25d20</text>
  <text x="470" y="330" font-family="Arial" font-size="12" text-anchor="middle" fill="#fff">#8e8e8e</text>
  <text x="640" y="330" font-family="Arial" font-size="12" text-anchor="middle" fill="#000">#ffc900</text>
  
  <text x="130" y="510" font-family="Arial" font-size="12" text-anchor="middle" fill="#fff">#0095b6</text>
  <text x="300" y="510" font-family="Arial" font-size="12" text-anchor="middle" fill="#000">#f4a4b4</text>
  <text x="470" y="510" font-family="Arial" font-size="12" text-anchor="middle" fill="#fff">#cc3333</text>
  <text x="640" y="510" font-family="Arial" font-size="12" text-anchor="middle" fill="#000">#ffffff</text>
  
  <!-- Legenda -->
  <text x="400" y="640" font-family="Arial" font-size="18" font-weight="bold" text-anchor="middle" fill="#333">Rozpoznane wartości kolorów</text>
  <text x="400" y="670" font-family="Arial" font-size="14" text-anchor="middle" fill="#333">Kolory zostały rozpoznane na podstawie załączonego obrazu</text>
  <text x="400" y="690" font-family="Arial" font-size="14" text-anchor="middle" fill="#333">i przypisane do odpowiednich kategorii</text>
</svg>
